<svg xmlns="http://www.w3.org/2000/svg" xmlns:xlink="http://www.w3.org/1999/xlink" width="1000" zoomAndPan="magnify" viewBox="0 0 750 74.999997" height="100" preserveAspectRatio="xMidYMid meet" version="1.0"><defs><g/></defs><g fill="#e4f2fa" fill-opacity="1"><g transform="translate(7.66603, 62.500002)"><g><path d="M 5.6875 0 L 5.6875 -46.25 L 14.9375 -46.25 L 14.9375 -7.75 L 33.6875 -7.75 L 33.6875 0 Z M 5.6875 0 "/></g></g></g><g fill="#e4f2fa" fill-opacity="1"><g transform="translate(43.728481, 62.500002)"><g><path d="M 14.375 -19.0625 L 25.375 -19.0625 L 24 -24.125 C 23.289062 -26.539062 22.613281 -29.039062 21.96875 -31.625 C 21.320312 -34.207031 20.644531 -36.75 19.9375 -39.25 L 19.6875 -39.25 C 19.101562 -36.707031 18.476562 -34.15625 17.8125 -31.59375 C 17.144531 -29.03125 16.457031 -26.539062 15.75 -24.125 Z M 30.625 0 L 27.375 -11.875 L 12.375 -11.875 L 9.125 0 L -0.25 0 L 14.5625 -46.25 L 25.4375 -46.25 L 40.3125 0 Z M 30.625 0 "/></g></g></g><g fill="#e4f2fa" fill-opacity="1"><g transform="translate(83.790928, 62.500002)"><g><path d="M 5.6875 0 L 5.6875 -46.25 L 15.125 -46.25 L 28.5625 -21.625 L 33.1875 -11.625 L 33.5 -11.625 C 33.25 -14.039062 32.988281 -16.6875 32.71875 -19.5625 C 32.445312 -22.4375 32.3125 -25.1875 32.3125 -27.8125 L 32.3125 -46.25 L 41.0625 -46.25 L 41.0625 0 L 31.6875 0 L 18.3125 -24.75 L 13.625 -34.6875 L 13.3125 -34.6875 C 13.519531 -32.1875 13.757812 -29.539062 14.03125 -26.75 C 14.300781 -23.957031 14.4375 -21.226562 14.4375 -18.5625 L 14.4375 0 Z M 5.6875 0 "/></g></g></g><g fill="#e4f2fa" fill-opacity="1"><g transform="translate(130.603385, 62.500002)"><g><path d="M 5.6875 0 L 5.6875 -46.25 L 20.875 -46.25 C 24.289062 -46.25 27.363281 -45.800781 30.09375 -44.90625 C 32.820312 -44.007812 34.988281 -42.507812 36.59375 -40.40625 C 38.195312 -38.300781 39 -35.414062 39 -31.75 C 39 -28.25 38.195312 -25.363281 36.59375 -23.09375 C 34.988281 -20.820312 32.84375 -19.144531 30.15625 -18.0625 C 27.46875 -16.976562 24.457031 -16.4375 21.125 -16.4375 L 14.9375 -16.4375 L 14.9375 0 Z M 14.9375 -23.75 L 20.5 -23.75 C 26.789062 -23.75 29.9375 -26.414062 29.9375 -31.75 C 29.9375 -34.457031 29.113281 -36.332031 27.46875 -37.375 C 25.820312 -38.414062 23.394531 -38.9375 20.1875 -38.9375 L 14.9375 -38.9375 Z M 14.9375 -23.75 "/></g></g></g><g fill="#e4f2fa" fill-opacity="1"><g transform="translate(172.290845, 62.500002)"><g><path d="M 5.6875 0 L 5.6875 -46.25 L 14.9375 -46.25 L 14.9375 -7.75 L 33.6875 -7.75 L 33.6875 0 Z M 5.6875 0 "/></g></g></g><g fill="#e4f2fa" fill-opacity="1"><g transform="translate(208.353296, 62.500002)"><g><path d="M 14.375 -19.0625 L 25.375 -19.0625 L 24 -24.125 C 23.289062 -26.539062 22.613281 -29.039062 21.96875 -31.625 C 21.320312 -34.207031 20.644531 -36.75 19.9375 -39.25 L 19.6875 -39.25 C 19.101562 -36.707031 18.476562 -34.15625 17.8125 -31.59375 C 17.144531 -29.03125 16.457031 -26.539062 15.75 -24.125 Z M 30.625 0 L 27.375 -11.875 L 12.375 -11.875 L 9.125 0 L -0.25 0 L 14.5625 -46.25 L 25.4375 -46.25 L 40.3125 0 Z M 30.625 0 "/></g></g></g><g fill="#e4f2fa" fill-opacity="1"><g transform="translate(248.415743, 62.500002)"><g><path d="M 5.6875 0 L 5.6875 -46.25 L 15.125 -46.25 L 28.5625 -21.625 L 33.1875 -11.625 L 33.5 -11.625 C 33.25 -14.039062 32.988281 -16.6875 32.71875 -19.5625 C 32.445312 -22.4375 32.3125 -25.1875 32.3125 -27.8125 L 32.3125 -46.25 L 41.0625 -46.25 L 41.0625 0 L 31.6875 0 L 18.3125 -24.75 L 13.625 -34.6875 L 13.3125 -34.6875 C 13.519531 -32.1875 13.757812 -29.539062 14.03125 -26.75 C 14.300781 -23.957031 14.4375 -21.226562 14.4375 -18.5625 L 14.4375 0 Z M 5.6875 0 "/></g></g></g><g fill="#e4f2fa" fill-opacity="1"><g transform="translate(295.228201, 62.500002)"><g><path d="M 5.6875 0 L 5.6875 -46.25 L 20.875 -46.25 C 24.289062 -46.25 27.363281 -45.800781 30.09375 -44.90625 C 32.820312 -44.007812 34.988281 -42.507812 36.59375 -40.40625 C 38.195312 -38.300781 39 -35.414062 39 -31.75 C 39 -28.25 38.195312 -25.363281 36.59375 -23.09375 C 34.988281 -20.820312 32.84375 -19.144531 30.15625 -18.0625 C 27.46875 -16.976562 24.457031 -16.4375 21.125 -16.4375 L 14.9375 -16.4375 L 14.9375 0 Z M 14.9375 -23.75 L 20.5 -23.75 C 26.789062 -23.75 29.9375 -26.414062 29.9375 -31.75 C 29.9375 -34.457031 29.113281 -36.332031 27.46875 -37.375 C 25.820312 -38.414062 23.394531 -38.9375 20.1875 -38.9375 L 14.9375 -38.9375 Z M 14.9375 -23.75 "/></g></g></g><g fill="#e4f2fa" fill-opacity="1"><g transform="translate(336.91566, 62.500002)"><g><path d="M 5.6875 0 L 5.6875 -46.25 L 14.9375 -46.25 L 14.9375 -7.75 L 33.6875 -7.75 L 33.6875 0 Z M 5.6875 0 "/></g></g></g><g fill="#e4f2fa" fill-opacity="1"><g transform="translate(372.978111, 62.500002)"><g><path d="M 14.375 -19.0625 L 25.375 -19.0625 L 24 -24.125 C 23.289062 -26.539062 22.613281 -29.039062 21.96875 -31.625 C 21.320312 -34.207031 20.644531 -36.75 19.9375 -39.25 L 19.6875 -39.25 C 19.101562 -36.707031 18.476562 -34.15625 17.8125 -31.59375 C 17.144531 -29.03125 16.457031 -26.539062 15.75 -24.125 Z M 30.625 0 L 27.375 -11.875 L 12.375 -11.875 L 9.125 0 L -0.25 0 L 14.5625 -46.25 L 25.4375 -46.25 L 40.3125 0 Z M 30.625 0 "/></g></g></g><g fill="#e4f2fa" fill-opacity="1"><g transform="translate(413.040558, 62.500002)"><g><path d="M 5.6875 0 L 5.6875 -46.25 L 15.125 -46.25 L 28.5625 -21.625 L 33.1875 -11.625 L 33.5 -11.625 C 33.25 -14.039062 32.988281 -16.6875 32.71875 -19.5625 C 32.445312 -22.4375 32.3125 -25.1875 32.3125 -27.8125 L 32.3125 -46.25 L 41.0625 -46.25 L 41.0625 0 L 31.6875 0 L 18.3125 -24.75 L 13.625 -34.6875 L 13.3125 -34.6875 C 13.519531 -32.1875 13.757812 -29.539062 14.03125 -26.75 C 14.300781 -23.957031 14.4375 -21.226562 14.4375 -18.5625 L 14.4375 0 Z M 5.6875 0 "/></g></g></g><g fill="#e4f2fa" fill-opacity="1"><g transform="translate(459.853039, 62.500002)"><g><path d="M 5.6875 0 L 5.6875 -46.25 L 20.875 -46.25 C 24.289062 -46.25 27.363281 -45.800781 30.09375 -44.90625 C 32.820312 -44.007812 34.988281 -42.507812 36.59375 -40.40625 C 38.195312 -38.300781 39 -35.414062 39 -31.75 C 39 -28.25 38.195312 -25.363281 36.59375 -23.09375 C 34.988281 -20.820312 32.84375 -19.144531 30.15625 -18.0625 C 27.46875 -16.976562 24.457031 -16.4375 21.125 -16.4375 L 14.9375 -16.4375 L 14.9375 0 Z M 14.9375 -23.75 L 20.5 -23.75 C 26.789062 -23.75 29.9375 -26.414062 29.9375 -31.75 C 29.9375 -34.457031 29.113281 -36.332031 27.46875 -37.375 C 25.820312 -38.414062 23.394531 -38.9375 20.1875 -38.9375 L 14.9375 -38.9375 Z M 14.9375 -23.75 "/></g></g></g><g fill="#e4f2fa" fill-opacity="1"><g transform="translate(501.540524, 62.500002)"><g><path d="M 5.6875 0 L 5.6875 -46.25 L 14.9375 -46.25 L 14.9375 -7.75 L 33.6875 -7.75 L 33.6875 0 Z M 5.6875 0 "/></g></g></g><g fill="#e4f2fa" fill-opacity="1"><g transform="translate(537.602951, 62.500002)"><g><path d="M 14.375 -19.0625 L 25.375 -19.0625 L 24 -24.125 C 23.289062 -26.539062 22.613281 -29.039062 21.96875 -31.625 C 21.320312 -34.207031 20.644531 -36.75 19.9375 -39.25 L 19.6875 -39.25 C 19.101562 -36.707031 18.476562 -34.15625 17.8125 -31.59375 C 17.144531 -29.03125 16.457031 -26.539062 15.75 -24.125 Z M 30.625 0 L 27.375 -11.875 L 12.375 -11.875 L 9.125 0 L -0.25 0 L 14.5625 -46.25 L 25.4375 -46.25 L 40.3125 0 Z M 30.625 0 "/></g></g></g><g fill="#e4f2fa" fill-opacity="1"><g transform="translate(577.665375, 62.500002)"><g><path d="M 5.6875 0 L 5.6875 -46.25 L 15.125 -46.25 L 28.5625 -21.625 L 33.1875 -11.625 L 33.5 -11.625 C 33.25 -14.039062 32.988281 -16.6875 32.71875 -19.5625 C 32.445312 -22.4375 32.3125 -25.1875 32.3125 -27.8125 L 32.3125 -46.25 L 41.0625 -46.25 L 41.0625 0 L 31.6875 0 L 18.3125 -24.75 L 13.625 -34.6875 L 13.3125 -34.6875 C 13.519531 -32.1875 13.757812 -29.539062 14.03125 -26.75 C 14.300781 -23.957031 14.4375 -21.226562 14.4375 -18.5625 L 14.4375 0 Z M 5.6875 0 "/></g></g></g><g fill="#e4f2fa" fill-opacity="1"><g transform="translate(624.477809, 62.500002)"><g><path d="M 5.6875 0 L 5.6875 -46.25 L 20.875 -46.25 C 24.289062 -46.25 27.363281 -45.800781 30.09375 -44.90625 C 32.820312 -44.007812 34.988281 -42.507812 36.59375 -40.40625 C 38.195312 -38.300781 39 -35.414062 39 -31.75 C 39 -28.25 38.195312 -25.363281 36.59375 -23.09375 C 34.988281 -20.820312 32.84375 -19.144531 30.15625 -18.0625 C 27.46875 -16.976562 24.457031 -16.4375 21.125 -16.4375 L 14.9375 -16.4375 L 14.9375 0 Z M 14.9375 -23.75 L 20.5 -23.75 C 26.789062 -23.75 29.9375 -26.414062 29.9375 -31.75 C 29.9375 -34.457031 29.113281 -36.332031 27.46875 -37.375 C 25.820312 -38.414062 23.394531 -38.9375 20.1875 -38.9375 L 14.9375 -38.9375 Z M 14.9375 -23.75 "/></g></g></g><g fill="#e4f2fa" fill-opacity="1"><g transform="translate(666.165294, 62.500002)"><g><path d="M 5.6875 0 L 5.6875 -46.25 L 14.9375 -46.25 L 14.9375 -7.75 L 33.6875 -7.75 L 33.6875 0 Z M 5.6875 0 "/></g></g></g><g fill="#e4f2fa" fill-opacity="1"><g transform="translate(702.227721, 62.500002)"><g><path d="M 14.375 -19.0625 L 25.375 -19.0625 L 24 -24.125 C 23.289062 -26.539062 22.613281 -29.039062 21.96875 -31.625 C 21.320312 -34.207031 20.644531 -36.75 19.9375 -39.25 L 19.6875 -39.25 C 19.101562 -36.707031 18.476562 -34.15625 17.8125 -31.59375 C 17.144531 -29.03125 16.457031 -26.539062 15.75 -24.125 Z M 30.625 0 L 27.375 -11.875 L 12.375 -11.875 L 9.125 0 L -0.25 0 L 14.5625 -46.25 L 25.4375 -46.25 L 40.3125 0 Z M 30.625 0 "/></g></g></g></svg>