<svg xmlns="http://www.w3.org/2000/svg" xmlns:xlink="http://www.w3.org/1999/xlink" width="1000" zoomAndPan="magnify" viewBox="0 0 750 74.999997" height="100" preserveAspectRatio="xMidYMid meet" version="1.0"><defs><g/></defs><g fill="#e4f2fa" fill-opacity="1"><g transform="translate(5.883803, 63.635454)"><g><path d="M 5.6875 0 L 5.6875 -46.25 L 20.875 -46.25 C 24.289062 -46.25 27.363281 -45.800781 30.09375 -44.90625 C 32.820312 -44.007812 34.988281 -42.507812 36.59375 -40.40625 C 38.195312 -38.300781 39 -35.414062 39 -31.75 C 39 -28.25 38.195312 -25.363281 36.59375 -23.09375 C 34.988281 -20.820312 32.84375 -19.144531 30.15625 -18.0625 C 27.46875 -16.976562 24.457031 -16.4375 21.125 -16.4375 L 14.9375 -16.4375 L 14.9375 0 Z M 14.9375 -23.75 L 20.5 -23.75 C 26.789062 -23.75 29.9375 -26.414062 29.9375 -31.75 C 29.9375 -34.457031 29.113281 -36.332031 27.46875 -37.375 C 25.820312 -38.414062 23.394531 -38.9375 20.1875 -38.9375 L 14.9375 -38.9375 Z M 14.9375 -23.75 "/></g></g></g><g fill="#e4f2fa" fill-opacity="1"><g transform="translate(47.571263, 63.635454)"><g><path d="M 14.9375 -38.9375 L 14.9375 -24.8125 L 20.9375 -24.8125 C 23.894531 -24.8125 26.164062 -25.4375 27.75 -26.6875 C 29.332031 -27.9375 30.125 -29.789062 30.125 -32.25 C 30.125 -34.75 29.332031 -36.488281 27.75 -37.46875 C 26.164062 -38.445312 23.894531 -38.9375 20.9375 -38.9375 Z M 41.1875 0 L 30.875 0 L 21.375 -17.5 L 14.9375 -17.5 L 14.9375 0 L 5.6875 0 L 5.6875 -46.25 L 21.8125 -46.25 C 25.0625 -46.25 28 -45.820312 30.625 -44.96875 C 33.25 -44.113281 35.332031 -42.664062 36.875 -40.625 C 38.414062 -38.582031 39.1875 -35.789062 39.1875 -32.25 C 39.1875 -28.789062 38.382812 -25.96875 36.78125 -23.78125 C 35.175781 -21.59375 33.039062 -19.976562 30.375 -18.9375 Z M 41.1875 0 "/></g></g></g><g fill="#e4f2fa" fill-opacity="1"><g transform="translate(90.196208, 63.635454)"><g><path d="M 24.0625 0.875 C 19.976562 0.875 16.382812 -0.101562 13.28125 -2.0625 C 10.175781 -4.019531 7.75 -6.800781 6 -10.40625 C 4.25 -14.007812 3.375 -18.3125 3.375 -23.3125 C 3.375 -28.351562 4.25 -32.644531 6 -36.1875 C 7.75 -39.726562 10.175781 -42.4375 13.28125 -44.3125 C 16.382812 -46.1875 19.976562 -47.125 24.0625 -47.125 C 28.144531 -47.125 31.738281 -46.1875 34.84375 -44.3125 C 37.945312 -42.4375 40.375 -39.71875 42.125 -36.15625 C 43.875 -32.59375 44.75 -28.3125 44.75 -23.3125 C 44.75 -18.3125 43.875 -14.007812 42.125 -10.40625 C 40.375 -6.800781 37.945312 -4.019531 34.84375 -2.0625 C 31.738281 -0.101562 28.144531 0.875 24.0625 0.875 Z M 24.0625 -7.125 C 27.519531 -7.125 30.257812 -8.59375 32.28125 -11.53125 C 34.300781 -14.46875 35.3125 -18.394531 35.3125 -23.3125 C 35.3125 -28.269531 34.300781 -32.15625 32.28125 -34.96875 C 30.257812 -37.78125 27.519531 -39.1875 24.0625 -39.1875 C 20.644531 -39.1875 17.914062 -37.78125 15.875 -34.96875 C 13.832031 -32.15625 12.8125 -28.269531 12.8125 -23.3125 C 12.8125 -18.394531 13.832031 -14.46875 15.875 -11.53125 C 17.914062 -8.59375 20.644531 -7.125 24.0625 -7.125 Z M 24.0625 -7.125 "/></g></g></g><g fill="#e4f2fa" fill-opacity="1"><g transform="translate(138.321161, 63.635454)"><g><path d="M 5.6875 0 L 5.6875 -46.25 L 21 -46.25 C 24.164062 -46.25 27.007812 -45.894531 29.53125 -45.1875 C 32.050781 -44.476562 34.050781 -43.300781 35.53125 -41.65625 C 37.007812 -40.007812 37.75 -37.75 37.75 -34.875 C 37.75 -32.75 37.1875 -30.726562 36.0625 -28.8125 C 34.9375 -26.894531 33.394531 -25.582031 31.4375 -24.875 L 31.4375 -24.5625 C 33.9375 -23.976562 36.007812 -22.789062 37.65625 -21 C 39.300781 -19.207031 40.125 -16.75 40.125 -13.625 C 40.125 -10.539062 39.332031 -7.988281 37.75 -5.96875 C 36.164062 -3.945312 34.03125 -2.445312 31.34375 -1.46875 C 28.65625 -0.488281 25.601562 0 22.1875 0 Z M 14.9375 -27.4375 L 20.3125 -27.4375 C 23.269531 -27.4375 25.414062 -27.988281 26.75 -29.09375 C 28.082031 -30.195312 28.75 -31.664062 28.75 -33.5 C 28.75 -35.539062 28.0625 -37 26.6875 -37.875 C 25.3125 -38.75 23.226562 -39.1875 20.4375 -39.1875 L 14.9375 -39.1875 Z M 14.9375 -7.125 L 21.375 -7.125 C 24.539062 -7.125 26.957031 -7.695312 28.625 -8.84375 C 30.289062 -9.988281 31.125 -11.769531 31.125 -14.1875 C 31.125 -16.4375 30.300781 -18.0625 28.65625 -19.0625 C 27.007812 -20.0625 24.582031 -20.5625 21.375 -20.5625 L 14.9375 -20.5625 Z M 14.9375 -7.125 "/></g></g></g><g fill="#e4f2fa" fill-opacity="1"><g transform="translate(180.883617, 63.635454)"><g><path d="M 5.6875 0 L 5.6875 -46.25 L 14.9375 -46.25 L 14.9375 -7.75 L 33.6875 -7.75 L 33.6875 0 Z M 5.6875 0 "/></g></g></g><g fill="#e4f2fa" fill-opacity="1"><g transform="translate(216.946068, 63.635454)"><g><path d="M 5.6875 0 L 5.6875 -46.25 L 34.0625 -46.25 L 34.0625 -38.5625 L 14.9375 -38.5625 L 14.9375 -27.875 L 31.1875 -27.875 L 31.1875 -20.125 L 14.9375 -20.125 L 14.9375 -7.75 L 34.75 -7.75 L 34.75 0 Z M 5.6875 0 "/></g></g></g><g fill="#e4f2fa" fill-opacity="1"><g transform="translate(255.383527, 63.635454)"><g><path d="M 5.6875 0 L 5.6875 -46.25 L 15.9375 -46.25 L 23.8125 -24.625 C 24.3125 -23.207031 24.789062 -21.738281 25.25 -20.21875 C 25.707031 -18.695312 26.164062 -17.1875 26.625 -15.6875 L 26.9375 -15.6875 C 27.4375 -17.1875 27.90625 -18.695312 28.34375 -20.21875 C 28.78125 -21.738281 29.25 -23.207031 29.75 -24.625 L 37.4375 -46.25 L 47.6875 -46.25 L 47.6875 0 L 39.25 0 L 39.25 -19.3125 C 39.25 -20.769531 39.3125 -22.40625 39.4375 -24.21875 C 39.5625 -26.03125 39.71875 -27.832031 39.90625 -29.625 C 40.09375 -31.414062 40.25 -33.039062 40.375 -34.5 L 40.125 -34.5 L 36.375 -23.625 L 29.25 -4.1875 L 23.9375 -4.1875 L 16.75 -23.625 L 13.0625 -34.5 L 12.8125 -34.5 C 12.976562 -33.039062 13.144531 -31.414062 13.3125 -29.625 C 13.476562 -27.832031 13.632812 -26.03125 13.78125 -24.21875 C 13.925781 -22.40625 14 -20.769531 14 -19.3125 L 14 0 Z M 5.6875 0 "/></g></g></g><g fill="#e4f2fa" fill-opacity="1"><g transform="translate(308.758479, 63.635454)"><g><path d="M 5.6875 0 L 5.6875 -46.25 L 20.875 -46.25 C 24.289062 -46.25 27.363281 -45.800781 30.09375 -44.90625 C 32.820312 -44.007812 34.988281 -42.507812 36.59375 -40.40625 C 38.195312 -38.300781 39 -35.414062 39 -31.75 C 39 -28.25 38.195312 -25.363281 36.59375 -23.09375 C 34.988281 -20.820312 32.84375 -19.144531 30.15625 -18.0625 C 27.46875 -16.976562 24.457031 -16.4375 21.125 -16.4375 L 14.9375 -16.4375 L 14.9375 0 Z M 14.9375 -23.75 L 20.5 -23.75 C 26.789062 -23.75 29.9375 -26.414062 29.9375 -31.75 C 29.9375 -34.457031 29.113281 -36.332031 27.46875 -37.375 C 25.820312 -38.414062 23.394531 -38.9375 20.1875 -38.9375 L 14.9375 -38.9375 Z M 14.9375 -23.75 "/></g></g></g><g fill="#e4f2fa" fill-opacity="1"><g transform="translate(350.445938, 63.635454)"><g><path d="M 14.9375 -38.9375 L 14.9375 -24.8125 L 20.9375 -24.8125 C 23.894531 -24.8125 26.164062 -25.4375 27.75 -26.6875 C 29.332031 -27.9375 30.125 -29.789062 30.125 -32.25 C 30.125 -34.75 29.332031 -36.488281 27.75 -37.46875 C 26.164062 -38.445312 23.894531 -38.9375 20.9375 -38.9375 Z M 41.1875 0 L 30.875 0 L 21.375 -17.5 L 14.9375 -17.5 L 14.9375 0 L 5.6875 0 L 5.6875 -46.25 L 21.8125 -46.25 C 25.0625 -46.25 28 -45.820312 30.625 -44.96875 C 33.25 -44.113281 35.332031 -42.664062 36.875 -40.625 C 38.414062 -38.582031 39.1875 -35.789062 39.1875 -32.25 C 39.1875 -28.789062 38.382812 -25.96875 36.78125 -23.78125 C 35.175781 -21.59375 33.039062 -19.976562 30.375 -18.9375 Z M 41.1875 0 "/></g></g></g><g fill="#e4f2fa" fill-opacity="1"><g transform="translate(393.070884, 63.635454)"><g><path d="M 24.0625 0.875 C 19.976562 0.875 16.382812 -0.101562 13.28125 -2.0625 C 10.175781 -4.019531 7.75 -6.800781 6 -10.40625 C 4.25 -14.007812 3.375 -18.3125 3.375 -23.3125 C 3.375 -28.351562 4.25 -32.644531 6 -36.1875 C 7.75 -39.726562 10.175781 -42.4375 13.28125 -44.3125 C 16.382812 -46.1875 19.976562 -47.125 24.0625 -47.125 C 28.144531 -47.125 31.738281 -46.1875 34.84375 -44.3125 C 37.945312 -42.4375 40.375 -39.71875 42.125 -36.15625 C 43.875 -32.59375 44.75 -28.3125 44.75 -23.3125 C 44.75 -18.3125 43.875 -14.007812 42.125 -10.40625 C 40.375 -6.800781 37.945312 -4.019531 34.84375 -2.0625 C 31.738281 -0.101562 28.144531 0.875 24.0625 0.875 Z M 24.0625 -7.125 C 27.519531 -7.125 30.257812 -8.59375 32.28125 -11.53125 C 34.300781 -14.46875 35.3125 -18.394531 35.3125 -23.3125 C 35.3125 -28.269531 34.300781 -32.15625 32.28125 -34.96875 C 30.257812 -37.78125 27.519531 -39.1875 24.0625 -39.1875 C 20.644531 -39.1875 17.914062 -37.78125 15.875 -34.96875 C 13.832031 -32.15625 12.8125 -28.269531 12.8125 -23.3125 C 12.8125 -18.394531 13.832031 -14.46875 15.875 -11.53125 C 17.914062 -8.59375 20.644531 -7.125 24.0625 -7.125 Z M 24.0625 -7.125 "/></g></g></g><g fill="#e4f2fa" fill-opacity="1"><g transform="translate(441.195836, 63.635454)"><g><path d="M 5.6875 0 L 5.6875 -46.25 L 21 -46.25 C 24.164062 -46.25 27.007812 -45.894531 29.53125 -45.1875 C 32.050781 -44.476562 34.050781 -43.300781 35.53125 -41.65625 C 37.007812 -40.007812 37.75 -37.75 37.75 -34.875 C 37.75 -32.75 37.1875 -30.726562 36.0625 -28.8125 C 34.9375 -26.894531 33.394531 -25.582031 31.4375 -24.875 L 31.4375 -24.5625 C 33.9375 -23.976562 36.007812 -22.789062 37.65625 -21 C 39.300781 -19.207031 40.125 -16.75 40.125 -13.625 C 40.125 -10.539062 39.332031 -7.988281 37.75 -5.96875 C 36.164062 -3.945312 34.03125 -2.445312 31.34375 -1.46875 C 28.65625 -0.488281 25.601562 0 22.1875 0 Z M 14.9375 -27.4375 L 20.3125 -27.4375 C 23.269531 -27.4375 25.414062 -27.988281 26.75 -29.09375 C 28.082031 -30.195312 28.75 -31.664062 28.75 -33.5 C 28.75 -35.539062 28.0625 -37 26.6875 -37.875 C 25.3125 -38.75 23.226562 -39.1875 20.4375 -39.1875 L 14.9375 -39.1875 Z M 14.9375 -7.125 L 21.375 -7.125 C 24.539062 -7.125 26.957031 -7.695312 28.625 -8.84375 C 30.289062 -9.988281 31.125 -11.769531 31.125 -14.1875 C 31.125 -16.4375 30.300781 -18.0625 28.65625 -19.0625 C 27.007812 -20.0625 24.582031 -20.5625 21.375 -20.5625 L 14.9375 -20.5625 Z M 14.9375 -7.125 "/></g></g></g><g fill="#e4f2fa" fill-opacity="1"><g transform="translate(483.758316, 63.635454)"><g><path d="M 5.6875 0 L 5.6875 -46.25 L 14.9375 -46.25 L 14.9375 -7.75 L 33.6875 -7.75 L 33.6875 0 Z M 5.6875 0 "/></g></g></g><g fill="#e4f2fa" fill-opacity="1"><g transform="translate(519.820744, 63.635454)"><g><path d="M 5.6875 0 L 5.6875 -46.25 L 34.0625 -46.25 L 34.0625 -38.5625 L 14.9375 -38.5625 L 14.9375 -27.875 L 31.1875 -27.875 L 31.1875 -20.125 L 14.9375 -20.125 L 14.9375 -7.75 L 34.75 -7.75 L 34.75 0 Z M 5.6875 0 "/></g></g></g><g fill="#e4f2fa" fill-opacity="1"><g transform="translate(558.258202, 63.635454)"><g><path d="M 5.6875 0 L 5.6875 -46.25 L 15.9375 -46.25 L 23.8125 -24.625 C 24.3125 -23.207031 24.789062 -21.738281 25.25 -20.21875 C 25.707031 -18.695312 26.164062 -17.1875 26.625 -15.6875 L 26.9375 -15.6875 C 27.4375 -17.1875 27.90625 -18.695312 28.34375 -20.21875 C 28.78125 -21.738281 29.25 -23.207031 29.75 -24.625 L 37.4375 -46.25 L 47.6875 -46.25 L 47.6875 0 L 39.25 0 L 39.25 -19.3125 C 39.25 -20.769531 39.3125 -22.40625 39.4375 -24.21875 C 39.5625 -26.03125 39.71875 -27.832031 39.90625 -29.625 C 40.09375 -31.414062 40.25 -33.039062 40.375 -34.5 L 40.125 -34.5 L 36.375 -23.625 L 29.25 -4.1875 L 23.9375 -4.1875 L 16.75 -23.625 L 13.0625 -34.5 L 12.8125 -34.5 C 12.976562 -33.039062 13.144531 -31.414062 13.3125 -29.625 C 13.476562 -27.832031 13.632812 -26.03125 13.78125 -24.21875 C 13.925781 -22.40625 14 -20.769531 14 -19.3125 L 14 0 Z M 5.6875 0 "/></g></g></g><g fill="#e4f2fa" fill-opacity="1"><g transform="translate(611.633154, 63.635454)"><g><path d="M 5.6875 0 L 5.6875 -46.25 L 20.875 -46.25 C 24.289062 -46.25 27.363281 -45.800781 30.09375 -44.90625 C 32.820312 -44.007812 34.988281 -42.507812 36.59375 -40.40625 C 38.195312 -38.300781 39 -35.414062 39 -31.75 C 39 -28.25 38.195312 -25.363281 36.59375 -23.09375 C 34.988281 -20.820312 32.84375 -19.144531 30.15625 -18.0625 C 27.46875 -16.976562 24.457031 -16.4375 21.125 -16.4375 L 14.9375 -16.4375 L 14.9375 0 Z M 14.9375 -23.75 L 20.5 -23.75 C 26.789062 -23.75 29.9375 -26.414062 29.9375 -31.75 C 29.9375 -34.457031 29.113281 -36.332031 27.46875 -37.375 C 25.820312 -38.414062 23.394531 -38.9375 20.1875 -38.9375 L 14.9375 -38.9375 Z M 14.9375 -23.75 "/></g></g></g><g fill="#e4f2fa" fill-opacity="1"><g transform="translate(653.320639, 63.635454)"><g><path d="M 14.9375 -38.9375 L 14.9375 -24.8125 L 20.9375 -24.8125 C 23.894531 -24.8125 26.164062 -25.4375 27.75 -26.6875 C 29.332031 -27.9375 30.125 -29.789062 30.125 -32.25 C 30.125 -34.75 29.332031 -36.488281 27.75 -37.46875 C 26.164062 -38.445312 23.894531 -38.9375 20.9375 -38.9375 Z M 41.1875 0 L 30.875 0 L 21.375 -17.5 L 14.9375 -17.5 L 14.9375 0 L 5.6875 0 L 5.6875 -46.25 L 21.8125 -46.25 C 25.0625 -46.25 28 -45.820312 30.625 -44.96875 C 33.25 -44.113281 35.332031 -42.664062 36.875 -40.625 C 38.414062 -38.582031 39.1875 -35.789062 39.1875 -32.25 C 39.1875 -28.789062 38.382812 -25.96875 36.78125 -23.78125 C 35.175781 -21.59375 33.039062 -19.976562 30.375 -18.9375 Z M 41.1875 0 "/></g></g></g><g fill="#e4f2fa" fill-opacity="1"><g transform="translate(695.945584, 63.635454)"><g><path d="M 24.0625 0.875 C 19.976562 0.875 16.382812 -0.101562 13.28125 -2.0625 C 10.175781 -4.019531 7.75 -6.800781 6 -10.40625 C 4.25 -14.007812 3.375 -18.3125 3.375 -23.3125 C 3.375 -28.351562 4.25 -32.644531 6 -36.1875 C 7.75 -39.726562 10.175781 -42.4375 13.28125 -44.3125 C 16.382812 -46.1875 19.976562 -47.125 24.0625 -47.125 C 28.144531 -47.125 31.738281 -46.1875 34.84375 -44.3125 C 37.945312 -42.4375 40.375 -39.71875 42.125 -36.15625 C 43.875 -32.59375 44.75 -28.3125 44.75 -23.3125 C 44.75 -18.3125 43.875 -14.007812 42.125 -10.40625 C 40.375 -6.800781 37.945312 -4.019531 34.84375 -2.0625 C 31.738281 -0.101562 28.144531 0.875 24.0625 0.875 Z M 24.0625 -7.125 C 27.519531 -7.125 30.257812 -8.59375 32.28125 -11.53125 C 34.300781 -14.46875 35.3125 -18.394531 35.3125 -23.3125 C 35.3125 -28.269531 34.300781 -32.15625 32.28125 -34.96875 C 30.257812 -37.78125 27.519531 -39.1875 24.0625 -39.1875 C 20.644531 -39.1875 17.914062 -37.78125 15.875 -34.96875 C 13.832031 -32.15625 12.8125 -28.269531 12.8125 -23.3125 C 12.8125 -18.394531 13.832031 -14.46875 15.875 -11.53125 C 17.914062 -8.59375 20.644531 -7.125 24.0625 -7.125 Z M 24.0625 -7.125 "/></g></g></g></svg>