<svg xmlns="http://www.w3.org/2000/svg" xmlns:xlink="http://www.w3.org/1999/xlink" width="1000" zoomAndPan="magnify" viewBox="0 0 750 74.999997" height="100" preserveAspectRatio="xMidYMid meet" version="1.0"><defs><g/></defs><g fill="#e4f2fa" fill-opacity="1"><g transform="translate(5.98146, 63.667936)"><g><path d="M 19.5 0.875 C 16.414062 0.875 13.394531 0.289062 10.4375 -0.875 C 7.476562 -2.039062 4.875 -3.707031 2.625 -5.875 L 7.9375 -12.25 C 9.601562 -10.707031 11.46875 -9.46875 13.53125 -8.53125 C 15.59375 -7.59375 17.644531 -7.125 19.6875 -7.125 C 22.101562 -7.125 23.9375 -7.601562 25.1875 -8.5625 C 26.4375 -9.519531 27.0625 -10.8125 27.0625 -12.4375 C 27.0625 -13.601562 26.769531 -14.53125 26.1875 -15.21875 C 25.601562 -15.90625 24.789062 -16.507812 23.75 -17.03125 C 22.707031 -17.550781 21.5 -18.101562 20.125 -18.6875 L 13.9375 -21.3125 C 12.394531 -21.976562 10.90625 -22.84375 9.46875 -23.90625 C 8.03125 -24.96875 6.851562 -26.3125 5.9375 -27.9375 C 5.019531 -29.5625 4.5625 -31.5 4.5625 -33.75 C 4.5625 -36.289062 5.25 -38.5625 6.625 -40.5625 C 8 -42.5625 9.882812 -44.15625 12.28125 -45.34375 C 14.675781 -46.53125 17.4375 -47.125 20.5625 -47.125 C 23.269531 -47.125 25.894531 -46.613281 28.4375 -45.59375 C 30.976562 -44.570312 33.1875 -43.101562 35.0625 -41.1875 L 30.375 -35.375 C 28.914062 -36.582031 27.394531 -37.519531 25.8125 -38.1875 C 24.226562 -38.851562 22.476562 -39.1875 20.5625 -39.1875 C 18.519531 -39.1875 16.894531 -38.757812 15.6875 -37.90625 C 14.476562 -37.050781 13.875 -35.851562 13.875 -34.3125 C 13.875 -33.226562 14.207031 -32.332031 14.875 -31.625 C 15.539062 -30.914062 16.425781 -30.3125 17.53125 -29.8125 C 18.632812 -29.3125 19.832031 -28.789062 21.125 -28.25 L 27.1875 -25.6875 C 30.019531 -24.519531 32.28125 -22.96875 33.96875 -21.03125 C 35.65625 -19.09375 36.5 -16.457031 36.5 -13.125 C 36.5 -10.625 35.820312 -8.3125 34.46875 -6.1875 C 33.113281 -4.0625 31.175781 -2.351562 28.65625 -1.0625 C 26.132812 0.226562 23.082031 0.875 19.5 0.875 Z M 19.5 0.875 "/></g></g></g><g fill="#e4f2fa" fill-opacity="1"><g transform="translate(44.981418, 63.667936)"><g><path d="M 5.6875 0 L 5.6875 -46.25 L 34.0625 -46.25 L 34.0625 -38.5625 L 14.9375 -38.5625 L 14.9375 -27.875 L 31.1875 -27.875 L 31.1875 -20.125 L 14.9375 -20.125 L 14.9375 -7.75 L 34.75 -7.75 L 34.75 0 Z M 5.6875 0 "/></g></g></g><g fill="#e4f2fa" fill-opacity="1"><g transform="translate(83.418876, 63.667936)"><g><path d="M 14.9375 -38.9375 L 14.9375 -24.8125 L 20.9375 -24.8125 C 23.894531 -24.8125 26.164062 -25.4375 27.75 -26.6875 C 29.332031 -27.9375 30.125 -29.789062 30.125 -32.25 C 30.125 -34.75 29.332031 -36.488281 27.75 -37.46875 C 26.164062 -38.445312 23.894531 -38.9375 20.9375 -38.9375 Z M 41.1875 0 L 30.875 0 L 21.375 -17.5 L 14.9375 -17.5 L 14.9375 0 L 5.6875 0 L 5.6875 -46.25 L 21.8125 -46.25 C 25.0625 -46.25 28 -45.820312 30.625 -44.96875 C 33.25 -44.113281 35.332031 -42.664062 36.875 -40.625 C 38.414062 -38.582031 39.1875 -35.789062 39.1875 -32.25 C 39.1875 -28.789062 38.382812 -25.96875 36.78125 -23.78125 C 35.175781 -21.59375 33.039062 -19.976562 30.375 -18.9375 Z M 41.1875 0 "/></g></g></g><g fill="#e4f2fa" fill-opacity="1"><g transform="translate(126.043822, 63.667936)"><g><path d="M 13.8125 0 L -0.3125 -46.25 L 9.375 -46.25 L 15.5 -23.75 C 16.207031 -21.207031 16.84375 -18.726562 17.40625 -16.3125 C 17.96875 -13.894531 18.625 -11.394531 19.375 -8.8125 L 19.6875 -8.8125 C 20.394531 -11.394531 21.050781 -13.894531 21.65625 -16.3125 C 22.257812 -18.726562 22.914062 -21.207031 23.625 -23.75 L 29.625 -46.25 L 39 -46.25 L 24.8125 0 Z M 13.8125 0 "/></g></g></g><g fill="#e4f2fa" fill-opacity="1"><g transform="translate(164.668772, 63.667936)"><g><path d="M 5.6875 0 L 5.6875 -46.25 L 14.9375 -46.25 L 14.9375 0 Z M 5.6875 0 "/></g></g></g><g fill="#e4f2fa" fill-opacity="1"><g transform="translate(185.293742, 63.667936)"><g><path d="M 24.5625 0.875 C 20.6875 0.875 17.144531 -0.0390625 13.9375 -1.875 C 10.726562 -3.707031 8.164062 -6.394531 6.25 -9.9375 C 4.332031 -13.476562 3.375 -17.8125 3.375 -22.9375 C 3.375 -26.769531 3.9375 -30.175781 5.0625 -33.15625 C 6.1875 -36.132812 7.75 -38.664062 9.75 -40.75 C 11.75 -42.832031 14.039062 -44.414062 16.625 -45.5 C 19.207031 -46.582031 21.957031 -47.125 24.875 -47.125 C 27.832031 -47.125 30.457031 -46.53125 32.75 -45.34375 C 35.039062 -44.15625 36.9375 -42.769531 38.4375 -41.1875 L 33.5625 -35.3125 C 32.394531 -36.4375 31.125 -37.363281 29.75 -38.09375 C 28.375 -38.820312 26.8125 -39.1875 25.0625 -39.1875 C 22.726562 -39.1875 20.632812 -38.550781 18.78125 -37.28125 C 16.925781 -36.007812 15.46875 -34.1875 14.40625 -31.8125 C 13.34375 -29.4375 12.8125 -26.582031 12.8125 -23.25 C 12.8125 -18.207031 13.90625 -14.257812 16.09375 -11.40625 C 18.28125 -8.550781 21.207031 -7.125 24.875 -7.125 C 26.832031 -7.125 28.601562 -7.550781 30.1875 -8.40625 C 31.769531 -9.257812 33.1875 -10.351562 34.4375 -11.6875 L 39.3125 -5.9375 C 37.394531 -3.726562 35.207031 -2.039062 32.75 -0.875 C 30.289062 0.289062 27.5625 0.875 24.5625 0.875 Z M 24.5625 0.875 "/></g></g></g><g fill="#e4f2fa" fill-opacity="1"><g transform="translate(226.356187, 63.667936)"><g><path d="M 5.6875 0 L 5.6875 -46.25 L 34.0625 -46.25 L 34.0625 -38.5625 L 14.9375 -38.5625 L 14.9375 -27.875 L 31.1875 -27.875 L 31.1875 -20.125 L 14.9375 -20.125 L 14.9375 -7.75 L 34.75 -7.75 L 34.75 0 Z M 5.6875 0 "/></g></g></g><g fill="#e4f2fa" fill-opacity="1"><g transform="translate(264.793646, 63.667936)"><g><path d="M 19.5 0.875 C 16.414062 0.875 13.394531 0.289062 10.4375 -0.875 C 7.476562 -2.039062 4.875 -3.707031 2.625 -5.875 L 7.9375 -12.25 C 9.601562 -10.707031 11.46875 -9.46875 13.53125 -8.53125 C 15.59375 -7.59375 17.644531 -7.125 19.6875 -7.125 C 22.101562 -7.125 23.9375 -7.601562 25.1875 -8.5625 C 26.4375 -9.519531 27.0625 -10.8125 27.0625 -12.4375 C 27.0625 -13.601562 26.769531 -14.53125 26.1875 -15.21875 C 25.601562 -15.90625 24.789062 -16.507812 23.75 -17.03125 C 22.707031 -17.550781 21.5 -18.101562 20.125 -18.6875 L 13.9375 -21.3125 C 12.394531 -21.976562 10.90625 -22.84375 9.46875 -23.90625 C 8.03125 -24.96875 6.851562 -26.3125 5.9375 -27.9375 C 5.019531 -29.5625 4.5625 -31.5 4.5625 -33.75 C 4.5625 -36.289062 5.25 -38.5625 6.625 -40.5625 C 8 -42.5625 9.882812 -44.15625 12.28125 -45.34375 C 14.675781 -46.53125 17.4375 -47.125 20.5625 -47.125 C 23.269531 -47.125 25.894531 -46.613281 28.4375 -45.59375 C 30.976562 -44.570312 33.1875 -43.101562 35.0625 -41.1875 L 30.375 -35.375 C 28.914062 -36.582031 27.394531 -37.519531 25.8125 -38.1875 C 24.226562 -38.851562 22.476562 -39.1875 20.5625 -39.1875 C 18.519531 -39.1875 16.894531 -38.757812 15.6875 -37.90625 C 14.476562 -37.050781 13.875 -35.851562 13.875 -34.3125 C 13.875 -33.226562 14.207031 -32.332031 14.875 -31.625 C 15.539062 -30.914062 16.425781 -30.3125 17.53125 -29.8125 C 18.632812 -29.3125 19.832031 -28.789062 21.125 -28.25 L 27.1875 -25.6875 C 30.019531 -24.519531 32.28125 -22.96875 33.96875 -21.03125 C 35.65625 -19.09375 36.5 -16.457031 36.5 -13.125 C 36.5 -10.625 35.820312 -8.3125 34.46875 -6.1875 C 33.113281 -4.0625 31.175781 -2.351562 28.65625 -1.0625 C 26.132812 0.226562 23.082031 0.875 19.5 0.875 Z M 19.5 0.875 "/></g></g></g><g fill="#e4f2fa" fill-opacity="1"><g transform="translate(303.793604, 63.667936)"><g><path d="M 5.6875 0 L 5.6875 -46.25 L 34.0625 -46.25 L 34.0625 -38.5625 L 14.9375 -38.5625 L 14.9375 -27.875 L 31.1875 -27.875 L 31.1875 -20.125 L 14.9375 -20.125 L 14.9375 -7.75 L 34.75 -7.75 L 34.75 0 Z M 5.6875 0 "/></g></g></g><g fill="#e4f2fa" fill-opacity="1"><g transform="translate(342.231062, 63.667936)"><g><path d="M 14.9375 -38.9375 L 14.9375 -24.8125 L 20.9375 -24.8125 C 23.894531 -24.8125 26.164062 -25.4375 27.75 -26.6875 C 29.332031 -27.9375 30.125 -29.789062 30.125 -32.25 C 30.125 -34.75 29.332031 -36.488281 27.75 -37.46875 C 26.164062 -38.445312 23.894531 -38.9375 20.9375 -38.9375 Z M 41.1875 0 L 30.875 0 L 21.375 -17.5 L 14.9375 -17.5 L 14.9375 0 L 5.6875 0 L 5.6875 -46.25 L 21.8125 -46.25 C 25.0625 -46.25 28 -45.820312 30.625 -44.96875 C 33.25 -44.113281 35.332031 -42.664062 36.875 -40.625 C 38.414062 -38.582031 39.1875 -35.789062 39.1875 -32.25 C 39.1875 -28.789062 38.382812 -25.96875 36.78125 -23.78125 C 35.175781 -21.59375 33.039062 -19.976562 30.375 -18.9375 Z M 41.1875 0 "/></g></g></g><g fill="#e4f2fa" fill-opacity="1"><g transform="translate(384.856008, 63.667936)"><g><path d="M 13.8125 0 L -0.3125 -46.25 L 9.375 -46.25 L 15.5 -23.75 C 16.207031 -21.207031 16.84375 -18.726562 17.40625 -16.3125 C 17.96875 -13.894531 18.625 -11.394531 19.375 -8.8125 L 19.6875 -8.8125 C 20.394531 -11.394531 21.050781 -13.894531 21.65625 -16.3125 C 22.257812 -18.726562 22.914062 -21.207031 23.625 -23.75 L 29.625 -46.25 L 39 -46.25 L 24.8125 0 Z M 13.8125 0 "/></g></g></g><g fill="#e4f2fa" fill-opacity="1"><g transform="translate(423.480958, 63.667936)"><g><path d="M 5.6875 0 L 5.6875 -46.25 L 14.9375 -46.25 L 14.9375 0 Z M 5.6875 0 "/></g></g></g><g fill="#e4f2fa" fill-opacity="1"><g transform="translate(444.105927, 63.667936)"><g><path d="M 24.5625 0.875 C 20.6875 0.875 17.144531 -0.0390625 13.9375 -1.875 C 10.726562 -3.707031 8.164062 -6.394531 6.25 -9.9375 C 4.332031 -13.476562 3.375 -17.8125 3.375 -22.9375 C 3.375 -26.769531 3.9375 -30.175781 5.0625 -33.15625 C 6.1875 -36.132812 7.75 -38.664062 9.75 -40.75 C 11.75 -42.832031 14.039062 -44.414062 16.625 -45.5 C 19.207031 -46.582031 21.957031 -47.125 24.875 -47.125 C 27.832031 -47.125 30.457031 -46.53125 32.75 -45.34375 C 35.039062 -44.15625 36.9375 -42.769531 38.4375 -41.1875 L 33.5625 -35.3125 C 32.394531 -36.4375 31.125 -37.363281 29.75 -38.09375 C 28.375 -38.820312 26.8125 -39.1875 25.0625 -39.1875 C 22.726562 -39.1875 20.632812 -38.550781 18.78125 -37.28125 C 16.925781 -36.007812 15.46875 -34.1875 14.40625 -31.8125 C 13.34375 -29.4375 12.8125 -26.582031 12.8125 -23.25 C 12.8125 -18.207031 13.90625 -14.257812 16.09375 -11.40625 C 18.28125 -8.550781 21.207031 -7.125 24.875 -7.125 C 26.832031 -7.125 28.601562 -7.550781 30.1875 -8.40625 C 31.769531 -9.257812 33.1875 -10.351562 34.4375 -11.6875 L 39.3125 -5.9375 C 37.394531 -3.726562 35.207031 -2.039062 32.75 -0.875 C 30.289062 0.289062 27.5625 0.875 24.5625 0.875 Z M 24.5625 0.875 "/></g></g></g><g fill="#e4f2fa" fill-opacity="1"><g transform="translate(485.168373, 63.667936)"><g><path d="M 5.6875 0 L 5.6875 -46.25 L 34.0625 -46.25 L 34.0625 -38.5625 L 14.9375 -38.5625 L 14.9375 -27.875 L 31.1875 -27.875 L 31.1875 -20.125 L 14.9375 -20.125 L 14.9375 -7.75 L 34.75 -7.75 L 34.75 0 Z M 5.6875 0 "/></g></g></g><g fill="#e4f2fa" fill-opacity="1"><g transform="translate(523.605831, 63.667936)"><g><path d="M 19.5 0.875 C 16.414062 0.875 13.394531 0.289062 10.4375 -0.875 C 7.476562 -2.039062 4.875 -3.707031 2.625 -5.875 L 7.9375 -12.25 C 9.601562 -10.707031 11.46875 -9.46875 13.53125 -8.53125 C 15.59375 -7.59375 17.644531 -7.125 19.6875 -7.125 C 22.101562 -7.125 23.9375 -7.601562 25.1875 -8.5625 C 26.4375 -9.519531 27.0625 -10.8125 27.0625 -12.4375 C 27.0625 -13.601562 26.769531 -14.53125 26.1875 -15.21875 C 25.601562 -15.90625 24.789062 -16.507812 23.75 -17.03125 C 22.707031 -17.550781 21.5 -18.101562 20.125 -18.6875 L 13.9375 -21.3125 C 12.394531 -21.976562 10.90625 -22.84375 9.46875 -23.90625 C 8.03125 -24.96875 6.851562 -26.3125 5.9375 -27.9375 C 5.019531 -29.5625 4.5625 -31.5 4.5625 -33.75 C 4.5625 -36.289062 5.25 -38.5625 6.625 -40.5625 C 8 -42.5625 9.882812 -44.15625 12.28125 -45.34375 C 14.675781 -46.53125 17.4375 -47.125 20.5625 -47.125 C 23.269531 -47.125 25.894531 -46.613281 28.4375 -45.59375 C 30.976562 -44.570312 33.1875 -43.101562 35.0625 -41.1875 L 30.375 -35.375 C 28.914062 -36.582031 27.394531 -37.519531 25.8125 -38.1875 C 24.226562 -38.851562 22.476562 -39.1875 20.5625 -39.1875 C 18.519531 -39.1875 16.894531 -38.757812 15.6875 -37.90625 C 14.476562 -37.050781 13.875 -35.851562 13.875 -34.3125 C 13.875 -33.226562 14.207031 -32.332031 14.875 -31.625 C 15.539062 -30.914062 16.425781 -30.3125 17.53125 -29.8125 C 18.632812 -29.3125 19.832031 -28.789062 21.125 -28.25 L 27.1875 -25.6875 C 30.019531 -24.519531 32.28125 -22.96875 33.96875 -21.03125 C 35.65625 -19.09375 36.5 -16.457031 36.5 -13.125 C 36.5 -10.625 35.820312 -8.3125 34.46875 -6.1875 C 33.113281 -4.0625 31.175781 -2.351562 28.65625 -1.0625 C 26.132812 0.226562 23.082031 0.875 19.5 0.875 Z M 19.5 0.875 "/></g></g></g><g fill="#e4f2fa" fill-opacity="1"><g transform="translate(562.605813, 63.667936)"><g><path d="M 5.6875 0 L 5.6875 -46.25 L 34.0625 -46.25 L 34.0625 -38.5625 L 14.9375 -38.5625 L 14.9375 -27.875 L 31.1875 -27.875 L 31.1875 -20.125 L 14.9375 -20.125 L 14.9375 -7.75 L 34.75 -7.75 L 34.75 0 Z M 5.6875 0 "/></g></g></g><g fill="#e4f2fa" fill-opacity="1"><g transform="translate(601.043271, 63.667936)"><g><path d="M 14.9375 -38.9375 L 14.9375 -24.8125 L 20.9375 -24.8125 C 23.894531 -24.8125 26.164062 -25.4375 27.75 -26.6875 C 29.332031 -27.9375 30.125 -29.789062 30.125 -32.25 C 30.125 -34.75 29.332031 -36.488281 27.75 -37.46875 C 26.164062 -38.445312 23.894531 -38.9375 20.9375 -38.9375 Z M 41.1875 0 L 30.875 0 L 21.375 -17.5 L 14.9375 -17.5 L 14.9375 0 L 5.6875 0 L 5.6875 -46.25 L 21.8125 -46.25 C 25.0625 -46.25 28 -45.820312 30.625 -44.96875 C 33.25 -44.113281 35.332031 -42.664062 36.875 -40.625 C 38.414062 -38.582031 39.1875 -35.789062 39.1875 -32.25 C 39.1875 -28.789062 38.382812 -25.96875 36.78125 -23.78125 C 35.175781 -21.59375 33.039062 -19.976562 30.375 -18.9375 Z M 41.1875 0 "/></g></g></g><g fill="#e4f2fa" fill-opacity="1"><g transform="translate(643.668217, 63.667936)"><g><path d="M 13.8125 0 L -0.3125 -46.25 L 9.375 -46.25 L 15.5 -23.75 C 16.207031 -21.207031 16.84375 -18.726562 17.40625 -16.3125 C 17.96875 -13.894531 18.625 -11.394531 19.375 -8.8125 L 19.6875 -8.8125 C 20.394531 -11.394531 21.050781 -13.894531 21.65625 -16.3125 C 22.257812 -18.726562 22.914062 -21.207031 23.625 -23.75 L 29.625 -46.25 L 39 -46.25 L 24.8125 0 Z M 13.8125 0 "/></g></g></g><g fill="#e4f2fa" fill-opacity="1"><g transform="translate(682.293167, 63.667936)"><g><path d="M 5.6875 0 L 5.6875 -46.25 L 14.9375 -46.25 L 14.9375 0 Z M 5.6875 0 "/></g></g></g><g fill="#e4f2fa" fill-opacity="1"><g transform="translate(702.918137, 63.667936)"><g><path d="M 24.5625 0.875 C 20.6875 0.875 17.144531 -0.0390625 13.9375 -1.875 C 10.726562 -3.707031 8.164062 -6.394531 6.25 -9.9375 C 4.332031 -13.476562 3.375 -17.8125 3.375 -22.9375 C 3.375 -26.769531 3.9375 -30.175781 5.0625 -33.15625 C 6.1875 -36.132812 7.75 -38.664062 9.75 -40.75 C 11.75 -42.832031 14.039062 -44.414062 16.625 -45.5 C 19.207031 -46.582031 21.957031 -47.125 24.875 -47.125 C 27.832031 -47.125 30.457031 -46.53125 32.75 -45.34375 C 35.039062 -44.15625 36.9375 -42.769531 38.4375 -41.1875 L 33.5625 -35.3125 C 32.394531 -36.4375 31.125 -37.363281 29.75 -38.09375 C 28.375 -38.820312 26.8125 -39.1875 25.0625 -39.1875 C 22.726562 -39.1875 20.632812 -38.550781 18.78125 -37.28125 C 16.925781 -36.007812 15.46875 -34.1875 14.40625 -31.8125 C 13.34375 -29.4375 12.8125 -26.582031 12.8125 -23.25 C 12.8125 -18.207031 13.90625 -14.257812 16.09375 -11.40625 C 18.28125 -8.550781 21.207031 -7.125 24.875 -7.125 C 26.832031 -7.125 28.601562 -7.550781 30.1875 -8.40625 C 31.769531 -9.257812 33.1875 -10.351562 34.4375 -11.6875 L 39.3125 -5.9375 C 37.394531 -3.726562 35.207031 -2.039062 32.75 -0.875 C 30.289062 0.289062 27.5625 0.875 24.5625 0.875 Z M 24.5625 0.875 "/></g></g></g></svg>